<?xml version="1.0" standalone="no"?>
<!DOCTYPE svg PUBLIC "-//W3C//DTD SVG 1.1//EN"
"http://www.w3.org/Graphics/SVG/1.1/DTD/svg11.dtd">

<svg width="359" height="297" view_box="0 0 359 297"
xmlns="http://www.w3.org/2000/svg"
xmlns:link="http://www.w3.org/1999/xlink">\n\n<desc>Généré par Mocodo 2.3.7 le Sun, 03 Apr 2022 04:22:49</desc>

<rect id="frame" x="0" y="0" width="359" height="297" fill="#f7f7f7" stroke="none" stroke-width="0"/>

<!-- Association AVOIR -->
<line x1="56" y1="77" x2="181" y2="77" stroke="#d6604d" stroke-width="2"/>
<text x="108" y="94.0" fill="#2166ac" font-family="Verdana" font-size="12">1,1</text>
<line x1="306" y1="77" x2="181" y2="77" stroke="#d6604d" stroke-width="2"/>
<text x="236" y="94.0" fill="#2166ac" font-family="Verdana" font-size="12">1,1</text>
<g id="association-AVOIR">
	<path d="M 194 52 a 14 14 90 0 1 14 14 V 77 h -54 V 66 a 14 14 90 0 1 14 -14" fill="#f4a582" stroke="#f4a582" stroke-width="0"/>
	<path d="M 208 77.0 v 11 a 14 14 90 0 1 -14 14 H 168 a 14 14 90 0 1 -14 -14 V 77.0 H 54" fill="#fddbc7" stroke="#fddbc7" stroke-width="0"/>
	<rect x="154" y="52" width="54" height="50" fill="none" rx="14" stroke="#d6604d" stroke-width="2"/>
	<line x1="154" y1="77" x2="208" y2="77" stroke="#d6604d" stroke-width="1"/>
	<text x="161" y="69.7" fill="#000000" font-family="Verdana" font-size="12">AVOIR</text>
</g>

<!-- Entity FILMS -->
<g id="entity-FILMS">
	<g id="frame-FILMS">
		<rect x="12" y="170" width="88" height="25" fill="#92c5de" stroke="#92c5de" stroke-width="0"/>
		<rect x="12" y="195.0" width="88" height="93" fill="#d1e5f0" stroke="#d1e5f0" stroke-width="0"/>
		<rect x="12" y="170" width="88" height="118" fill="none" stroke="#4393c3" stroke-width="2"/>
		<line x1="12" y1="195" x2="100" y2="195" stroke="#4393c3" stroke-width="1"/>
	</g>
	<text x="37" y="187.7" fill="#000000" font-family="Verdana" font-size="12">FILMS</text>
	<text x="17" y="212.7" fill="#000000" font-family="Verdana" font-size="12">id_film</text>
	<line x1="17" y1="215" x2="59" y2="215" stroke="#000000" stroke-width="1"/>
	<text x="17" y="229.8" fill="#000000" font-family="Verdana" font-size="12">image_film</text>
	<text x="17" y="246.8" fill="#000000" font-family="Verdana" font-size="12">nom_ film</text>
	<text x="17" y="263.8" fill="#000000" font-family="Verdana" font-size="12">presentation</text>
	<text x="17" y="280.8" fill="#000000" font-family="Verdana" font-size="12">date</text>
</g>

<!-- Entity PANIER -->
<g id="entity-PANIER">
	<g id="frame-PANIER">
		<rect x="262" y="18" width="88" height="25" fill="#92c5de" stroke="#92c5de" stroke-width="0"/>
		<rect x="262" y="43.0" width="88" height="93" fill="#d1e5f0" stroke="#d1e5f0" stroke-width="0"/>
		<rect x="262" y="18" width="88" height="118" fill="none" stroke="#4393c3" stroke-width="2"/>
		<line x1="262" y1="43" x2="350" y2="43" stroke="#4393c3" stroke-width="1"/>
	</g>
	<text x="283" y="35.7" fill="#000000" font-family="Verdana" font-size="12">PANIER</text>
	<text x="267" y="60.7" fill="#000000" font-family="Verdana" font-size="12">Id_panier</text>
	<line x1="267" y1="63" x2="326" y2="63" stroke="#000000" stroke-width="1"/>
	<text x="267" y="77.8" fill="#000000" font-family="Verdana" font-size="12">image_film</text>
	<text x="267" y="94.8" fill="#000000" font-family="Verdana" font-size="12">nom_film</text>
	<text x="267" y="111.8" fill="#000000" font-family="Verdana" font-size="12">presentation</text>
	<text x="267" y="128.8" fill="#000000" font-family="Verdana" font-size="12">date</text>
</g>

<!-- Entity PROGRAMMES -->
<g id="entity-PROGRAMMES">
	<g id="frame-PROGRAMMES">
		<rect x="132" y="170" width="98" height="25" fill="#92c5de" stroke="#92c5de" stroke-width="0"/>
		<rect x="132" y="195.0" width="98" height="93" fill="#d1e5f0" stroke="#d1e5f0" stroke-width="0"/>
		<rect x="132" y="170" width="98" height="118" fill="none" stroke="#4393c3" stroke-width="2"/>
		<line x1="132" y1="195" x2="230" y2="195" stroke="#4393c3" stroke-width="1"/>
	</g>
	<text x="137" y="187.7" fill="#000000" font-family="Verdana" font-size="12">PROGRAMMES</text>
	<text x="137" y="212.7" fill="#000000" font-family="Verdana" font-size="12">id_prog</text>
	<line x1="137" y1="215" x2="184" y2="215" stroke="#000000" stroke-width="1"/>
	<text x="137" y="229.8" fill="#000000" font-family="Verdana" font-size="12">image_film</text>
	<text x="137" y="246.8" fill="#000000" font-family="Verdana" font-size="12">nom_ film</text>
	<text x="137" y="263.8" fill="#000000" font-family="Verdana" font-size="12">presentation</text>
	<text x="137" y="280.8" fill="#000000" font-family="Verdana" font-size="12">date</text>
</g>

<!-- Entity USERS -->
<g id="entity-USERS">
	<g id="frame-USERS">
		<rect x="9" y="9" width="94" height="25" fill="#92c5de" stroke="#92c5de" stroke-width="0"/>
		<rect x="9" y="34.0" width="94" height="111" fill="#d1e5f0" stroke="#d1e5f0" stroke-width="0"/>
		<rect x="9" y="9" width="94" height="136" fill="none" stroke="#4393c3" stroke-width="2"/>
		<line x1="9" y1="34" x2="103" y2="34" stroke="#4393c3" stroke-width="1"/>
	</g>
	<text x="35" y="26.7" fill="#000000" font-family="Verdana" font-size="12">USERS</text>
	<text x="14" y="51.7" fill="#000000" font-family="Verdana" font-size="12">Id_user</text>
	<line x1="14" y1="54" x2="61" y2="54" stroke="#000000" stroke-width="1"/>
	<text x="14" y="68.7" fill="#000000" font-family="Verdana" font-size="12">Nom_user</text>
	<text x="14" y="85.8" fill="#000000" font-family="Verdana" font-size="12">Prénom_user</text>
	<text x="14" y="102.8" fill="#000000" font-family="Verdana" font-size="12">Mail_user</text>
	<text x="14" y="119.8" fill="#000000" font-family="Verdana" font-size="12">City_user</text>
	<text x="14" y="136.8" fill="#000000" font-family="Verdana" font-size="12">Country_user</text>
</g>

<!-- Entity SERIES -->
<g id="entity-SERIES">
	<g id="frame-SERIES">
		<rect x="262" y="170" width="88" height="25" fill="#92c5de" stroke="#92c5de" stroke-width="0"/>
		<rect x="262" y="195.0" width="88" height="93" fill="#d1e5f0" stroke="#d1e5f0" stroke-width="0"/>
		<rect x="262" y="170" width="88" height="118" fill="none" stroke="#4393c3" stroke-width="2"/>
		<line x1="262" y1="195" x2="350" y2="195" stroke="#4393c3" stroke-width="1"/>
	</g>
	<text x="283" y="187.7" fill="#000000" font-family="Verdana" font-size="12">SERIES</text>
	<text x="267" y="212.7" fill="#000000" font-family="Verdana" font-size="12">id_Serie</text>
	<line x1="267" y1="215" x2="317" y2="215" stroke="#000000" stroke-width="1"/>
	<text x="267" y="229.8" fill="#000000" font-family="Verdana" font-size="12">image_film</text>
	<text x="267" y="246.8" fill="#000000" font-family="Verdana" font-size="12">nom_ film</text>
	<text x="267" y="263.8" fill="#000000" font-family="Verdana" font-size="12">presentation</text>
	<text x="267" y="280.8" fill="#000000" font-family="Verdana" font-size="12">date</text>
</g>
</svg>